<svg xmlns="http://www.w3.org/2000/svg" width="240" height="240" fill="none">
    <g clip-path="url(#a)">
        <rect width="240" height="240" rx="120" fill="#000"/>
        <path d="m155.6 187-.2-.7c-.2-.4-.5-.6-.9-.9-.7-.4-1.4-.4-2.2.2l-.7.4-.3.3-.2.1c-1.7 1.3-3.8 1.7-6.3 1.3l-1.3-.3s-2.2-.6-3.2-1.1l-7.2-3.6c-1.3-.6-1.6-1-1.5-1.2 0-.3.5-.3 1.3-.6 1-.5 1.8-1.2 2.2-1.6.9-.8 1.4-1.7 1.4-1.8.7-1.2.9-2.3 1-3.5.1-.7.2-1.7.1-2.9V69.7c0-1.5-.1-2-.2-2.6l-.3-2.4v-.3a31.6 31.6 0 0 0-21.6-25.8 50.3 50.3 0 0 0-12.1-2.6h-.4c-.2-.2 0-.3-.3-.4h-.3c-.3 0-.4.2-.5.5-7 10.4-13.8 20.9-20.7 31.3-.3.4 0 1 .3 1 3.4 1.1 6 2.7 8 5a28 28 0 0 1 4.3 7c.5 1 .5 2.1.4 3-.2 1.4-1 2.3-1.3 2.7-.5.7-1 1.1-1.4 1.3a5 5 0 0 1-1.3.7 3 3 0 0 1-1.1.3c-.3 0-.8 0-1.2-.3a2 2 0 0 1-1-.7l-.2-1c-.3-1.3-.2-2.2-.3-2.2 0 0-.3.9-.3 1.9 0 .5.1 1 .3 1.4 0 .2.3.6.8 1s1 .5 1.4.5c.6.2 1.1 0 1.6 0l1.6-.6 2-1.3 1.6-1.5L97 84c1-1.1 2-2.3 2.8-3.6L102 77v-.2c.3-.2.4-.4.4-.6l.5-.6v-.2c1.8-2.2 2.6-4.7 2.4-7.5-.2-2.8-1.2-5.2-3-7.1-1.8-2-3.7-3.4-5.7-4.3L92.8 55c-.2-.1-.6-.2-.7-.5-.2-.6 1-1.6 2.1-2 1.4-.6 2.7-.6 3.3-.6 11.3 1 17 7.9 17 7.9a27 27 0 0 1 4.9 16.5v19.5c0 9.3.5 11-1.5 7.8-1.6-2.4-6.1-1.5-8.4-.2-.8.4-2 1.3-2 1.4a16.8 16.8 0 0 0-4.2 4s-1.2 1.5-2 3l-.6 1.6-.6 1.8c-.3.6-.4 1.2-.4 1.7v1.8c0 1.1.2 2.3.6 3.4.4 1 1 2 1.7 2.7v.2c1 .7 1.8 1.2 2.3 1.3l1.4.4h1l.2-.1 1.6-.5.1-.1 1-.4.3-.3-.4.1c-.2.3-.6.5-1 .7h-.9l-.7.2h-.6c-.3 0-.5 0-.6-.2l-.6-.1-.4-.1c-.8-.4-1.6-1-2-1.8a3 3 0 0 1-.7-1l-.5-1.3a9.5 9.5 0 0 1 .6-6 10.8 10.8 0 0 1 2.3-4l1.1-1a19.3 19.3 0 0 1 2.7-2.3c.2 0 .3-.2.4-.3l.7-.5.5-.3.9-.4 1-.4 1.3-.1h1.5c1 .3 1.6.8 2.6 1.8a9.6 9.6 0 0 1 2.3 6v25.4l-.3-.4-1.2-1.1-1-1h-.2l-1.4-.7-.7-.3-1.1-.3-.8-.1-1.3-.1h-2.2l-.6.1-1 .3-.7.5-.7.6c-.2 0-.3.3-.5.5-.5.6-.7 1.2-.9 1.7.1-.2 1-1.4 1.9-2l.7-.5.9-.3h2.4l1.1.4c.2 0 .7.2 1.4.7.6.4 1.2.8 1.9 1.5.4.4 1 1 1.4 2 .5.8.9 1.6 1 2.4.7 1.6 1.2 3.3 1.5 5.2l.3 2.7v23.7c0 .5-.5.9-1 .6l-28.5-13.9c-.9-.5-2-.8-3.2-.8-1 0-2 .3-3 .8-1 .6-1.8 1.1-2.5 1.8H81l-2.5 1.8-2.9 2.3c-4.7 4.2-7.7 8.5-7.7 8.5a34.3 34.3 0 0 0-5.6 12.3c0 .4-.5 2.7-.5 5.7 0 1.6.3 2.7.7 3.7a7 7 0 0 0 1.3 2c.8.8 1.6 1.2 2 1.4 1 .6 2.1.7 2.8.7h2.3c1 0 1.4-.2 1.6-.3l1.5-.4 1.1-.6c.6-.3 1-.7 1.6-1.2l1-1 .9-1.3c.3-.5.6-1 .8-1.8 0-.2.2-.7.2-1.5 0-.6.1-1.5-.4-2.6-.4-1-1-1.6-1-1.5l.6 1.2.3 1.2c.1.9-.1 1.6-.3 2.2-.4 1.4-1 2.3-1.4 2.7-.8 1-1.7 1.6-2.4 2a11 11 0 0 1-4.5 1.3c-.4 0-1.2 0-2-.2l-1-.3-1.3-.7c-.2-.2-.7-.5-1-1l-.7-1c-.1-.4-.4-.8-.5-1.4v-1.9a27.8 27.8 0 0 1 2-8l1-2.5 1.8-2.8c.6-1 1.1-1.6 1.9-2.4a5.6 5.6 0 0 1 4.6-2.2c1 0 1.8.4 2 .6h.1l54.3 26.2c2.7 1.1 5.1 1 7.3-.5l1.2-1 .6-.5 1.5-1.5.8-.8 1-1.2 1.7-2a120.4 120.4 0 0 1 5.3-4.7c.5-.4.9-.6 1.1-.9l.9-.5 1.3-.8.9-.5c0-.2.3-.5.3-.9Z" fill="#fff"/>
        <path d="M141 36.7c-.3 9 .1 13.5.1 13.5l.6 4.2c.2 1.5 1 5.2 1 6.9v6.1c.2 2.4 0 47.7-.3 83.8-.2 28.9 0 48 .4 53l.6 6.6c.2 0 .5-3.7.8-5.7.5-4 .9-17.5 1-34.2a2737.7 2737.7 0 0 0 .4-53 3036.6 3036.6 0 0 0 .3-52.3v-5c.2-2.6.6-3.5 1-6.1l.2-5.5s.3-7-.1-12.4c0 0-.1-1.8-1.3-3.6 0-.2-.3-.5-.7-.8l-.7-.2h-.5a2 2 0 0 0-1 .3 2 2 0 0 0-.5.6c-1.2 1.8-1.3 3.8-1.3 3.8Zm3-.2c.2 0 .4.3.5.4a7 7 0 0 1 .8 3 132.5 132.5 0 0 1 0 12.6V54l-.1 1c-.1.6-.2.7-.3.7H143.6a53.1 53.1 0 0 1-.9-5.4l-.1-4v-5.1l.1-1.7c0-.3 0-.9.2-1.6.1-.4.2-.7.5-1 0 0 .3-.3.5-.3Z" fill="#fff"/>
        <path d="M145 79.9c-1.6 2-2 2.4-2.1 2.4l-.1-.5h-.5c0 .2-.3.3-.4.4a406.3 406.3 0 0 1-3.4 2.6l-.5.4c-.3.4-.3 1-.3 1 0 .6-2.3 2.4-10.2 7v-2.6c5.5-5 10.1-9.2 10.2-9 0 0-.1.2 0 .4l.3.2.3-.1c.7-.5 3.6-2.7 4-2.8l.2-.3.3-.2v-.4c0-.2.4-.5 1.7-.8 0 .8.3 1.5.4 2.3Z" fill="#fff"/>
        <circle cx="213.5" cy="-1.5" r="86" stroke="#fff" stroke-opacity="0.5"/>
        <circle cx="175.5" cy="50.5" r="149" stroke="#fff" stroke-opacity="0.5"/>
    </g>
    <defs>
        <clipPath id="a">
            <rect width="240" height="240" rx="120" fill="#fff"/>
        </clipPath>
    </defs>
</svg>